<mxfile host="www.draw.io" modified="2019-11-15T08:59:18.004Z" agent="Mozilla/5.0 (Windows NT 10.0; Win64; x64) AppleWebKit/537.36 (KHTML, like Gecko) Chrome/78.0.3904.97 Safari/537.36" etag="2WyaDpv7idFoK-A7XomQ" version="12.2.6" type="github" pages="1">
  <diagram id="c8trHOqpOtLHYseAwmeI" name="Page-1">
    <mxGraphModel dx="1024" dy="566" grid="1" gridSize="10" guides="1" tooltips="1" connect="1" arrows="1" fold="1" page="1" pageScale="1" pageWidth="850" pageHeight="1100" math="0" shadow="0">
      <root>
        <mxCell id="0"/>
        <mxCell id="1" parent="0"/>
        <mxCell id="1sQjtHrPjkH_t4jUiwV0-1" value="Buzzers" style="strokeWidth=1;shadow=0;dashed=0;align=center;html=1;shape=mxgraph.mockup.containers.window;align=left;verticalAlign=top;spacingLeft=8;strokeColor2=#008cff;strokeColor3=#c4c4c4;fontColor=#666666;mainText=;fontSize=17;labelBackgroundColor=none;" vertex="1" parent="1">
          <mxGeometry x="40" y="40" width="550" height="380" as="geometry"/>
        </mxCell>
        <mxCell id="1sQjtHrPjkH_t4jUiwV0-2" value="" style="verticalLabelPosition=bottom;shadow=0;dashed=0;align=center;html=1;verticalAlign=top;strokeWidth=1;shape=mxgraph.mockup.containers.userMale;strokeColor=#666666;strokeColor2=#008cff;" vertex="1" parent="1">
          <mxGeometry x="90" y="110" width="100" height="100" as="geometry"/>
        </mxCell>
        <mxCell id="1sQjtHrPjkH_t4jUiwV0-3" value="Nickmane/firstname" style="text;html=1;strokeColor=none;fillColor=none;align=center;verticalAlign=middle;whiteSpace=wrap;rounded=0;" vertex="1" parent="1">
          <mxGeometry x="120" y="210" width="40" height="20" as="geometry"/>
        </mxCell>
        <mxCell id="1sQjtHrPjkH_t4jUiwV0-4" value="Lorem ipsum dolor sit amet, consectetur adipisicing elit, sed do eiusmod tempor incididunt ut labore et dolore magna aliqua. Ut enim ad minim veniam, quis nostrud exercitation ullamco laboris nisi ut aliquip ex ea commodo consequat.&amp;nbsp;" style="text;spacingTop=-5;whiteSpace=wrap;html=1;align=left;fontSize=12;fontFamily=Helvetica;fillColor=none;strokeColor=none;" vertex="1" parent="1">
          <mxGeometry x="300" y="110" width="250" height="280" as="geometry"/>
        </mxCell>
        <mxCell id="1sQjtHrPjkH_t4jUiwV0-5" value="-Gender&lt;br&gt;-Age&lt;br&gt;-Jobtitle/Weight&lt;br&gt;" style="strokeWidth=1;shadow=0;dashed=0;align=center;html=1;shape=mxgraph.mockup.text.bulletedList;textColor=#666666;mainText=,,,,;textSize=17;bulletStyle=none;strokeColor=none;fillColor=none;align=left;verticalAlign=top;fontSize=17;fontColor=#666666;" vertex="1" parent="1">
          <mxGeometry x="85" y="240" width="150" height="135" as="geometry"/>
        </mxCell>
        <mxCell id="1sQjtHrPjkH_t4jUiwV0-15" value="Buzz Off" style="strokeWidth=1;shadow=0;dashed=0;align=center;html=1;shape=mxgraph.mockup.buttons.button;mainText=;buttonStyle=round;fontSize=17;fontStyle=1;whiteSpace=wrap;" vertex="1" parent="1">
          <mxGeometry x="80" y="340" width="150" height="50" as="geometry"/>
        </mxCell>
        <mxCell id="1sQjtHrPjkH_t4jUiwV0-16" value="Buzz On" style="strokeWidth=1;shadow=0;dashed=0;align=center;html=1;shape=mxgraph.mockup.buttons.button;strokeColor=#A50040;mainText=;buttonStyle=round;fontSize=17;fontStyle=1;fillColor=#d80073;whiteSpace=wrap;fontColor=#ffffff;" vertex="1" parent="1">
          <mxGeometry x="400" y="340" width="150" height="50" as="geometry"/>
        </mxCell>
      </root>
    </mxGraphModel>
  </diagram>
</mxfile>
